<?xml version="1.0"?>
<svg xmlns="http://www.w3.org/2000/svg" width="512" height="512" viewBox="0 0 128 128"><g><g><path d="M89.738,78.811A23.245,23.245,0,0,0,52.266,65.2a19.544,19.544,0,0,0-36.732,11.75,21.046,21.046,0,0,0,7.274,40.8H82.175a20.2,20.2,0,0,0,7.563-38.939Z" fill="#483d9b"/><path d="M11.75,98.442A1.751,1.751,0,0,1,10,96.692a12.851,12.851,0,0,1,8.388-12A1.751,1.751,0,1,1,19.6,87.976a9.334,9.334,0,0,0-6.1,8.716A1.751,1.751,0,0,1,11.75,98.442Z" fill="#2b1f72"/><path d="M119.638,75.436A40.839,40.839,0,0,1,86.851,10.25,40.835,40.835,0,0,0,54.726,63.476,23.214,23.214,0,0,1,89.738,78.811a20.267,20.267,0,0,1,11.424,11.842A40.836,40.836,0,0,0,126.25,74.9,41.169,41.169,0,0,1,119.638,75.436Z" fill="#f4d844"/></g><g><path d="M47,116H43.167a1.75,1.75,0,0,0,0,3.5H47a1.75,1.75,0,0,0,0-3.5Z"/><path d="M18.388,84.691a12.851,12.851,0,0,0-8.388,12,1.75,1.75,0,0,0,3.5,0,9.334,9.334,0,0,1,6.1-8.716,1.751,1.751,0,1,0-1.211-3.285Z"/><path d="M127.745,73.986a1.748,1.748,0,0,0-1.777-.818A39.071,39.071,0,0,1,80.55,34.6a38.757,38.757,0,0,1,7.706-23.3A1.75,1.75,0,0,0,86.57,8.523a42.339,42.339,0,0,0-11.054,3.4A1.75,1.75,0,0,0,76.993,15.1a38.931,38.931,0,0,1,6-2.21,42.6,42.6,0,0,0,36.647,64.3c.829,0,1.664-.025,2.5-.076A38.917,38.917,0,0,1,102.25,88.634,21.866,21.866,0,0,0,91.261,77.56,24.971,24.971,0,0,0,55.775,60.885,39.025,39.025,0,0,1,67.368,21.452a1.75,1.75,0,0,0-2.337-2.606A42.557,42.557,0,0,0,52.513,62.233a21.319,21.319,0,0,0-38.936,12.02c0,.506.023,1.022.069,1.574A22.795,22.795,0,0,0,22.808,119.5H30.5a1.75,1.75,0,0,0,0-3.5H22.808A19.3,19.3,0,0,1,16.14,78.593a1.752,1.752,0,0,0,1.128-1.882,17.816,17.816,0,0,1,33.447-10.7,1.749,1.749,0,0,0,2.654.548A21.5,21.5,0,0,1,88.02,79.143a1.751,1.751,0,0,0,1.063,1.29A18.453,18.453,0,0,1,82.175,116H59.667a1.75,1.75,0,0,0,0,3.5H82.175a21.94,21.94,0,0,0,21.231-27.541A42.472,42.472,0,0,0,127.654,75.94,1.748,1.748,0,0,0,127.745,73.986Z"/></g></g></svg>
